<?xml version="1.0" encoding="utf-8"?>
<!-- Generator: Adobe Illustrator 21.1.0, SVG Export Plug-In . SVG Version: 6.00 Build 0)  -->
<svg version="1.1" id="Artwork" xmlns="http://www.w3.org/2000/svg" xmlns:xlink="http://www.w3.org/1999/xlink" x="0px" y="0px"
	 width="121.0525px" height="26.77494px" viewBox="0 0 121.0525 26.77494" enable-background="new 0 0 121.0525 26.77494"
	 xml:space="preserve">
<g>
	<g id="XMLID_4_">
		<g>
			<path fill="#FFFFFF" d="M38.16481,20.42338h-4.7334l-1.13672,3.35645H30.2898l4.4834-12.41797h2.08301l4.4834,12.41797h-2.03906
				L38.16481,20.42338z M33.92164,18.87455h3.75195l-1.84961-5.44824h-0.05176L33.92164,18.87455z"/>
			<path fill="#FFFFFF" d="M51.02223,19.25346c0,2.86523-1.50586,4.68164-3.77832,4.68164
				c-1.29883,0-2.33203-0.6377-2.84863-1.64453h-0.04297v4.48438h-1.8584V14.72611h1.79883v1.55762h0.03418
				c0.5332-1.04102,1.5752-1.7041,2.88281-1.7041C49.50758,14.57963,51.02223,16.38725,51.02223,19.25346z M49.11207,19.25346
				c0-1.89355-0.9209-3.10742-2.39258-3.10742c-1.41992,0-2.375,1.23926-2.375,3.10742c0,1.88477,0.94629,3.10645,2.375,3.10645
				C48.19117,22.3599,49.11207,21.15482,49.11207,19.25346z"/>
			<path fill="#FFFFFF" d="M60.98707,19.25346c0,2.86523-1.50586,4.68164-3.77832,4.68164
				c-1.29883,0-2.33203-0.6377-2.84863-1.64453h-0.04297v4.48438h-1.8584V14.72611h1.79883v1.55762h0.03418
				c0.5332-1.04102,1.5752-1.7041,2.88281-1.7041C59.47242,14.57963,60.98707,16.38725,60.98707,19.25346z M59.07692,19.25346
				c0-1.89355-0.9209-3.10742-2.39258-3.10742c-1.41992,0-2.375,1.23926-2.375,3.10742c0,1.88477,0.94629,3.10645,2.375,3.10645
				C58.15602,22.3599,59.07692,21.15482,59.07692,19.25346z"/>
			<path fill="#FFFFFF" d="M62.49195,11.36185h1.85937v12.41797h-1.85937V11.36185z"/>
			<path fill="#FFFFFF" d="M74.02711,21.12064c-0.25879,1.65234-1.82422,2.83105-3.89844,2.83105
				c-2.65918,0-4.26855-1.79883-4.26855-4.65527c0-2.83984,1.63477-4.7334,4.19043-4.7334
				c2.51367,0,4.08008,1.77246,4.08008,4.51758v0.63672h-6.39453v0.1123c0,1.5752,0.94629,2.61621,2.43555,2.61621
				c1.05859,0,1.8418-0.5332,2.09082-1.3252H74.02711z M67.74488,18.4185h4.52637c-0.04297-1.38574-0.9209-2.3584-2.2207-2.3584
				C68.75172,16.0601,67.83961,17.05033,67.74488,18.4185z"/>
			<path fill="#FFFFFF" d="M79.37281,23.77982V11.36185h1.74707l6.4375,9.15625h0.06836v-9.15625h1.87598v12.41797h-1.73828
				l-6.43652-9.14844h-0.07812v9.14844H79.37281z"/>
			<path fill="#FFFFFF" d="M99.33961,21.12064c-0.25879,1.65234-1.82422,2.83105-3.89844,2.83105
				c-2.65918,0-4.26855-1.79883-4.26855-4.65527c0-2.83984,1.63477-4.7334,4.19043-4.7334
				c2.51367,0,4.08008,1.77246,4.08008,4.51758v0.63672h-6.39453v0.1123c0,1.5752,0.94629,2.61621,2.43555,2.61621
				c1.05859,0,1.8418-0.5332,2.09082-1.3252H99.33961z M93.05738,18.4185h4.52637c-0.04297-1.38574-0.9209-2.3584-2.2207-2.3584
				C94.06422,16.0601,93.15211,17.05033,93.05738,18.4185z"/>
			<path fill="#FFFFFF" d="M110.35426,23.77982h-1.93652l-1.90234-6.78125h-0.04297l-1.88477,6.78125h-1.91895l-2.4873-9.05371
				h1.85938l1.65234,7.12598h0.03418l1.88477-7.12598h1.79004l1.89355,7.12598h0.04297l1.65234-7.12598h1.8418L110.35426,23.77982z"
				/>
			<path fill="#FFFFFF" d="M117.30836,14.56303c2.1084,0,3.47754,1.16992,3.53711,2.83984h-1.74707
				c-0.10254-0.87793-0.74805-1.42871-1.79004-1.42871c-1.00684,0-1.67773,0.49023-1.67773,1.21387
				c0,0.56738,0.41309,0.95508,1.39453,1.17871l1.47168,0.33594c1.84961,0.42969,2.55566,1.15332,2.55566,2.46094
				c0,1.65234-1.54102,2.78809-3.6748,2.78809c-2.26367,0-3.62305-1.11035-3.79492-2.83105h1.84082
				c0.17285,0.94629,0.81836,1.41113,1.9541,1.41113c1.11914,0,1.80664-0.46484,1.80664-1.20508
				c0-0.58496-0.33496-0.92871-1.3252-1.15234l-1.47168-0.34473c-1.7207-0.39551-2.57227-1.22168-2.57227-2.53906
				C113.81519,15.67338,115.22633,14.56303,117.30836,14.56303z"/>
		</g>
	</g>
	<path fill="#FFFFFF" d="M25.16211,6.96991c-0.00159-0.25317-0.00446-0.50629-0.01129-0.7594
		c-0.01495-0.55127-0.04742-1.10736-0.14532-1.65253c-0.09949-0.55359-0.26184-1.06879-0.51788-1.57172
		c-0.25153-0.49408-0.58008-0.94611-0.97205-1.33807c-0.39203-0.39203-0.84412-0.72058-1.33826-0.97211
		c-0.50269-0.25586-1.01764-0.41821-1.57086-0.51764c-0.54541-0.09808-1.10175-0.13055-1.6532-0.14545
		c-0.25311-0.00684-0.50623-0.00977-0.7594-0.01135C17.93323,0.00006,17.67255,0,17.41187,0c-0.03986,0-0.07971,0-0.11963,0H7.87158
		C7.83167,0,7.79181,0,7.75189,0c-0.26068,0-0.5213,0.00006-0.78198,0.00165C6.71674,0.00323,6.46362,0.00616,6.21057,0.013
		c-0.55151,0.01489-1.10785,0.04736-1.6532,0.14545C4.00409,0.25787,3.48914,0.42023,2.98645,0.67609
		c-0.49408,0.25153-0.94617,0.58008-1.3382,0.97211C1.25629,2.04016,0.92774,2.49219,0.67621,2.98627
		C0.42017,3.4892,0.25775,4.00439,0.15833,4.55798C0.06037,5.10315,0.02789,5.65924,0.013,6.21051
		c-0.00684,0.25311-0.00977,0.50623-0.01129,0.7594C-0.00012,7.27045,0,7.57098,0,7.87152v9.42065
		c0,0.3006-0.00012,0.60114,0.00171,0.90167c0.00153,0.25317,0.00446,0.50629,0.01129,0.75934
		c0.01489,0.55133,0.04736,1.10742,0.14532,1.65259c0.09943,0.55359,0.26184,1.06879,0.51788,1.57172
		c0.25153,0.49402,0.58008,0.94604,0.97205,1.33807c0.39203,0.39197,0.84412,0.72058,1.3382,0.97211
		c0.50269,0.25586,1.01764,0.41821,1.57092,0.51764c0.54535,0.09802,1.10168,0.13055,1.6532,0.14545
		c0.25305,0.00684,0.50616,0.00977,0.75934,0.01129c0.263,0.00159,0.52594,0.00171,0.78894,0.00171c0.0376,0,0.07513,0,0.11273,0
		h9.42065c0.0376,0,0.07513,0,0.11273,0c0.26294,0,0.52594-0.00012,0.78888-0.00171c0.25317-0.00153,0.50629-0.00446,0.7594-0.01129
		c0.55145-0.01489,1.10779-0.04742,1.6532-0.14545c0.55322-0.09943,1.06818-0.26178,1.57086-0.51764
		c0.49414-0.25153,0.94623-0.58014,1.33826-0.97211c0.39197-0.39203,0.72052-0.84406,0.97205-1.33807
		c0.25604-0.50293,0.4184-1.01813,0.51788-1.57172c0.0979-0.54517,0.13037-1.10126,0.14532-1.65259
		c0.00684-0.25305,0.0097-0.50616,0.01129-0.75934c0.00183-0.30054,0.00165-0.60107,0.00165-0.90167V7.87152
		C25.16376,7.57098,25.16394,7.27045,25.16211,6.96991z M11.62927,20.44562H6.85791H6.20557c-0.05682,0-0.11359,0-0.17035-0.00031
		c-0.04785-0.00031-0.0957-0.00085-0.14349-0.0022c-0.10419-0.00281-0.20929-0.00891-0.31226-0.02747
		c-0.10461-0.0188-0.20203-0.0495-0.297-0.0979c-0.09338-0.04755-0.17883-0.10962-0.25287-0.18372
		c-0.0741-0.0741-0.13611-0.15961-0.18372-0.25299c-0.04834-0.09503-0.07898-0.19238-0.09778-0.29694
		c-0.01855-0.10315-0.02466-0.20831-0.02753-0.3125c-0.00128-0.04785-0.00183-0.09576-0.00208-0.14355
		c-0.00037-0.05682-0.00037-0.11365-0.00037-0.17047v-0.65253v-4.77057c0-0.08203,0.06598-0.13104,0.13239-0.13104
		c0.04462,0,0.08942,0.02216,0.11456,0.07117c1.49524,2.91486,3.8092,5.22882,6.72412,6.72406
		C11.81122,20.26123,11.76642,20.44562,11.62927,20.44562z M20.44562,18.98151c0,0.04828,0,0.09656-0.00031,0.14478
		c-0.00031,0.04797-0.00085,0.09583-0.00214,0.14374c-0.00281,0.10437-0.00897,0.20966-0.02753,0.31281
		c-0.01886,0.1048-0.04956,0.20233-0.09808,0.29755c-0.04761,0.09344-0.1098,0.17902-0.18408,0.25323
		c-0.07416,0.07422-0.15979,0.13635-0.25336,0.18402c-0.09521,0.0484-0.19269,0.0791-0.29749,0.09796
		c-0.10327,0.01855-0.20856,0.02472-0.31305,0.02753c-0.04791,0.00128-0.09583,0.00189-0.1438,0.00214
		c-0.05688,0.00037-0.11383,0.00037-0.17072,0.00037H16.9914c-0.39996,0-0.60468-0.07422-0.90558-0.37512L5.09326,9.078
		C4.79608,8.78076,4.71814,8.57324,4.71814,8.17236V6.20807V6.18146c0-0.04797,0-0.09601,0.00037-0.14404
		C4.71875,5.9895,4.7193,5.94165,4.72058,5.89374c0.00287-0.10437,0.00903-0.20959,0.02759-0.31287
		c0.0188-0.10474,0.04956-0.20227,0.09808-0.29749c0.04755-0.09351,0.1098-0.17902,0.18402-0.25323s0.15985-0.13641,0.25342-0.18402
		c0.09515-0.04846,0.19269-0.0791,0.29742-0.09796c0.10327-0.01855,0.20862-0.02472,0.31305-0.02753
		c0.04797-0.00128,0.09589-0.00189,0.1438-0.00214C6.09485,4.71814,6.1518,4.71814,6.20868,4.71814h1.96368
		c0.39996,0,0.60468,0.07422,0.90564,0.37512L20.0705,16.08582c0.29724,0.29718,0.37512,0.5047,0.37512,0.90564V18.98151z
		 M20.44562,6.8587v4.77051c0,0.13721-0.18433,0.18201-0.24695,0.05994c-1.49524-2.91486-3.8092-5.22882-6.72406-6.72406
		c-0.12201-0.06262-0.07727-0.24695,0.05994-0.24695h4.77136h0.65234c0.05676,0,0.11353,0,0.17035,0.00037
		c0.04785,0.00024,0.09564,0.00085,0.14349,0.00208c0.10413,0.00287,0.20923,0.00897,0.31226,0.02753
		c0.10461,0.0188,0.20197,0.0495,0.297,0.0979c0.09338,0.04755,0.17871,0.10962,0.25281,0.18372s0.13617,0.15955,0.18372,0.25299
		c0.04834,0.09503,0.07904,0.19232,0.09784,0.29694c0.01855,0.10309,0.02466,0.20825,0.02747,0.3125
		c0.00128,0.04785,0.00183,0.0957,0.00214,0.14355c0.00031,0.05682,0.00031,0.11365,0.00031,0.17041V6.8587z"/>
	<g id="XMLID_1_">
		<g id="XMLID_2_">
			<g id="XMLID_3_">
				<g>
					<path fill="#FFFFFF" d="M31.81812,7.53666h-0.93994V1.48197h2.39649c1.2207,0,2.00537,0.72559,2.00537,1.86328
						c0,0.81348-0.43604,1.47656-1.1748,1.72852l1.35938,2.46289h-1.08643L33.1443,5.22904h-1.32617V7.53666z M31.81812,4.42728
						h1.35156c0.72559,0,1.14551-0.38574,1.14551-1.06152c0-0.6582-0.44482-1.05762-1.1709-1.05762h-1.32617V4.42728z"/>
					<path fill="#FFFFFF" d="M40.36354,6.30326c-0.19678,0.81445-0.93555,1.32129-1.98047,1.32129
						c-1.30908,0-2.11035-0.89746-2.11035-2.35742c0-1.46094,0.81787-2.3877,2.10645-2.3877
						c1.27148,0,2.03906,0.86816,2.03906,2.30371V5.4976h-3.22656v0.05078c0.0293,0.80078,0.49512,1.30859,1.2168,1.30859
						c0.54541,0,0.91895-0.19727,1.08691-0.55371H40.36354z M37.19166,4.8306h2.30762
						c-0.021-0.71777-0.45752-1.18359-1.12451-1.18359S37.24195,4.11674,37.19166,4.8306z"/>
					<path fill="#FFFFFF" d="M41.3611,6.24467c0-0.82227,0.61279-1.29688,1.69922-1.36426l1.23779-0.07129V4.41459
						c0-0.48242-0.31885-0.75488-0.93555-0.75488c-0.50342,0-0.85156,0.18457-0.95264,0.50781h-0.87256
						c0.09229-0.78516,0.83057-1.28809,1.86719-1.28809c1.14551,0,1.79199,0.57031,1.79199,1.53516v3.12207h-0.86865v-0.6416
						h-0.07178c-0.27246,0.45703-0.77197,0.71777-1.37207,0.71777C42.00319,7.61283,41.3611,7.07963,41.3611,6.24467z
						 M44.29811,5.85404V5.47221L43.1819,5.54349c-0.62939,0.04199-0.91456,0.25586-0.91456,0.65918
						c0,0.41113,0.35695,0.65039,0.84767,0.65039C43.79469,6.85307,44.29811,6.42045,44.29811,5.85404z"/>
					<path fill="#FFFFFF" d="M46.37526,5.24955c0-1.44336,0.74268-2.35742,1.89648-2.35742c0.625,0,1.15381,0.29785,1.40137,0.80078
						h0.06738V1.18412h0.90184v6.35254h-0.86425V6.81498H49.7068c-0.27295,0.5-0.80566,0.79785-1.43506,0.79785
						C47.10914,7.61283,46.37526,6.69779,46.37526,5.24955z M47.30641,5.24955c0,0.96973,0.45752,1.55273,1.22119,1.55273
						c0.75977,0,1.22949-0.5918,1.22949-1.54785c0-0.95312-0.47412-1.55273-1.22949-1.55273
						C47.76832,3.7017,47.30641,4.28861,47.30641,5.24955z"/>
					<path fill="#FFFFFF" d="M54.36207,5.24955c0-1.47266,0.82227-2.37012,2.15674-2.37012
						c1.33008,0,2.15234,0.89746,2.15234,2.37012c0,1.48145-0.81787,2.375-2.15234,2.375
						C55.17994,7.62455,54.36207,6.73099,54.36207,5.24955z M57.74391,5.24955c0-0.99023-0.44482-1.56934-1.2251-1.56934
						c-0.78467,0-1.22559,0.5791-1.22559,1.56934c0,0.99902,0.44092,1.57422,1.22559,1.57422
						C57.29908,6.82377,57.74391,6.24467,57.74391,5.24955z"/>
					<path fill="#FFFFFF" d="M59.87428,2.96732h0.86865v0.72559h0.06689c0.22266-0.50781,0.67578-0.81348,1.36377-0.81348
						c1.01953,0,1.58203,0.6123,1.58203,1.69922v2.95801h-0.90234V4.80521c0-0.73438-0.31885-1.09961-0.98584-1.09961
						c-0.66748,0-1.09131,0.44531-1.09131,1.1582v2.67285h-0.90186V2.96732z"/>
				</g>
			</g>
		</g>
	</g>
</g>
<g>
</g>
<g>
</g>
<g>
</g>
<g>
</g>
<g>
</g>
<g>
</g>
</svg>
