<?xml version="1.0" encoding="utf-8"?>
<!-- Generator: Adobe Illustrator 21.1.0, SVG Export Plug-In . SVG Version: 6.00 Build 0)  -->
<svg version="1.1" id="Artwork" xmlns="http://www.w3.org/2000/svg" xmlns:xlink="http://www.w3.org/1999/xlink" x="0px" y="0px"
	 width="121.05029px" height="26.77274px" viewBox="0 0 121.05029 26.77274" enable-background="new 0 0 121.05029 26.77274"
	 xml:space="preserve">
<g>
	<path d="M17.41202,0c-0.04008,0-0.08014,0-0.12022,0H7.87136C7.8313,0,7.79121,0,7.75115,0
		C7.49067,0,7.23022,0.00011,6.96975,0.00169C6.71658,0.00323,6.46348,0.00616,6.21039,0.01299
		c-0.55148,0.0149-1.10778,0.0474-1.65314,0.14543C4.00399,0.25787,3.48905,0.4202,2.98638,0.67609
		C2.49229,0.9276,2.0402,1.25618,1.64818,1.64819C1.25624,2.04015,0.92769,2.49216,0.6762,2.98616
		C0.42015,3.48911,0.25776,4.0043,0.15831,4.55788C0.06036,5.10304,0.02788,5.65913,0.01299,6.2104
		c-0.00683,0.25309-0.00976,0.5062-0.0113,0.75935C-0.00014,7.27029,0,7.5708,0,7.87135v9.42043
		c0,0.30056-0.00014,0.60107,0.00169,0.90162c0.00154,0.25315,0.00447,0.50626,0.0113,0.75935
		c0.01489,0.55127,0.04737,1.10735,0.14532,1.65252c0.09945,0.55357,0.26184,1.06877,0.51789,1.57172
		c0.25149,0.494,0.58004,0.94601,0.97198,1.33799c0.39202,0.39199,0.84411,0.72057,1.3382,0.97208
		c0.50267,0.25589,1.01761,0.41821,1.57087,0.51766c0.54536,0.09803,1.10166,0.13053,1.65314,0.14543
		c0.25309,0.00684,0.50619,0.00977,0.75936,0.01131c0.26045,0.00158,0.52094,0.00169,0.78139,0.00169c0.04008,0,0.08014,0,0.12022,0
		h9.42044c0.04006,0,0.08015,0,0.12022,0c0.26048,0,0.52092-0.00011,0.78139-0.00169
		c0.25314-0.00154,0.50626-0.00447,0.75935-0.01131c0.55148-0.0149,1.10777-0.0474,1.65313-0.14543
		c0.55326-0.09945,1.06821-0.26177,1.57088-0.51766c0.49408-0.25152,0.94619-0.58009,1.33819-0.97208
		c0.39194-0.39198,0.7205-0.84399,0.97198-1.33799c0.25605-0.50294,0.41843-1.01814,0.51789-1.57172
		c0.09795-0.54517,0.13042-1.10125,0.14532-1.65252c0.00684-0.25309,0.00976-0.5062,0.0113-0.75935
		c0.00182-0.30054,0.00169-0.60106,0.00169-0.90162V7.87135c0-0.30055,0.00013-0.60107-0.00169-0.90161
		c-0.00154-0.25315-0.00446-0.50626-0.0113-0.75935c-0.0149-0.55127-0.04737-1.10735-0.14532-1.65252
		C24.90538,4.0043,24.743,3.48911,24.48695,2.98616c-0.25149-0.494-0.58004-0.94601-0.97198-1.33797
		c-0.392-0.39201-0.84411-0.72059-1.33819-0.97211C21.6741,0.4202,21.15916,0.25787,20.6059,0.15842
		c-0.54536-0.09803-1.10165-0.13053-1.65313-0.14543c-0.25309-0.00684-0.50621-0.00977-0.75935-0.01131
		C17.93296,0.00011,17.67248,0,17.41202,0L17.41202,0z"/>
	<path fill="#FFFFFF" d="M17.41202,0.35001l0.77926,0.00167c0.25071,0.00153,0.5014,0.00442,0.75204,0.01118
		c0.47815,0.01292,1.04224,0.03967,1.60066,0.14005c0.54204,0.09743,1.02419,0.2561,1.47401,0.48508
		c0.462,0.23519,0.88238,0.54058,1.24948,0.90769c0.3671,0.36709,0.67245,0.78741,0.90757,1.24927
		c0.22912,0.45005,0.38787,0.93246,0.48532,1.47482c0.10028,0.55816,0.12701,1.12207,0.13993,1.60009
		c0.00677,0.25064,0.00964,0.5013,0.01118,0.75201c0.0017,0.28105,0.00169,0.56207,0.00168,0.84313v0.05636v9.42043v0.05636
		c0.00001,0.28107,0.00002,0.56209-0.00168,0.84313c-0.00153,0.25071-0.00441,0.50137-0.01118,0.75201
		c-0.01292,0.47802-0.03965,1.04193-0.13993,1.60009c-0.09745,0.54235-0.2562,1.02477-0.48532,1.47482
		c-0.23512,0.46186-0.54048,0.88218-0.90756,1.24929c-0.36712,0.3671-0.78751,0.67249-1.24949,0.90767
		c-0.44982,0.22898-0.93197,0.38766-1.47401,0.48508c-0.55843,0.10038-1.12251,0.12712-1.60068,0.14005
		c-0.25063,0.00677-0.50132,0.00966-0.75201,0.01118l-0.77927,0.00167H17.2918H7.87136H7.75114l-0.77926-0.00167
		c-0.25073-0.00153-0.50139-0.00442-0.75204-0.01118c-0.47815-0.01292-1.04225-0.03967-1.60067-0.14005
		c-0.54204-0.09743-1.02419-0.2561-1.47401-0.48508c-0.46195-0.23516-0.88234-0.54055-1.24948-0.90766
		c-0.3671-0.36712-0.67245-0.78745-0.90757-1.2493c-0.22914-0.45008-0.38789-0.9325-0.48532-1.47482
		c-0.1003-0.55826-0.12702-1.12212-0.13993-1.60007c-0.00676-0.25065-0.00965-0.50133-0.01118-0.75204
		c-0.0017-0.27989-0.00169-0.55975-0.00168-0.83965v-0.05984V7.87135V7.81152C0.34999,7.53162,0.34998,7.25176,0.35168,6.97187
		C0.35321,6.72116,0.3561,6.47048,0.36286,6.21984C0.37577,5.74189,0.40249,5.17802,0.5028,4.61977
		c0.09742-0.54232,0.25617-1.02473,0.48531-1.47482c0.23512-0.46186,0.54047-0.88216,0.90755-1.24927
		c0.36715-0.36713,0.78754-0.67252,1.2495-0.90769c0.44982-0.22898,0.93197-0.38766,1.47401-0.48508
		c0.55842-0.10038,1.12252-0.12712,1.60068-0.14005c0.25064-0.00677,0.5013-0.00966,0.75202-0.01118l0.77927-0.00167h0.12022
		h9.42044H17.41202"/>
	<g>
		<g id="XMLID_39_">
			<g>
				<path d="M38.1626,20.42118h-4.7334l-1.13672,3.35645H30.2876l4.4834-12.41797h2.08301l4.4834,12.41797h-2.03906
					L38.1626,20.42118z M33.91944,18.87235h3.75195l-1.84961-5.44824h-0.05176L33.91944,18.87235z"/>
				<path d="M51.02002,19.25126c0,2.86523-1.50586,4.68164-3.77832,4.68164c-1.29883,0-2.33203-0.6377-2.84863-1.64453H44.3501
					v4.48438h-1.8584V14.72392h1.79883v1.55762h0.03418c0.5332-1.04102,1.5752-1.7041,2.88281-1.7041
					C49.50537,14.57743,51.02002,16.38505,51.02002,19.25126z M49.10987,19.25126c0-1.89355-0.9209-3.10742-2.39258-3.10742
					c-1.41992,0-2.375,1.23926-2.375,3.10742c0,1.88477,0.94629,3.10645,2.375,3.10645
					C48.18897,22.3577,49.10987,21.15263,49.10987,19.25126z"/>
				<path d="M60.98487,19.25126c0,2.86523-1.50586,4.68164-3.77832,4.68164c-1.29883,0-2.33203-0.6377-2.84863-1.64453h-0.04297
					v4.48438h-1.8584V14.72392h1.79883v1.55762h0.03418c0.5332-1.04102,1.5752-1.7041,2.88281-1.7041
					C59.47022,14.57743,60.98487,16.38505,60.98487,19.25126z M59.07471,19.25126c0-1.89355-0.9209-3.10742-2.39258-3.10742
					c-1.41992,0-2.375,1.23926-2.375,3.10742c0,1.88477,0.94629,3.10645,2.375,3.10645
					C58.15381,22.3577,59.07471,21.15263,59.07471,19.25126z"/>
				<path d="M62.48975,11.35966h1.85937v12.41797h-1.85937V11.35966z"/>
				<path d="M74.0249,21.11845c-0.25879,1.65234-1.82422,2.83105-3.89844,2.83105c-2.65918,0-4.26855-1.79883-4.26855-4.65527
					c0-2.83984,1.63477-4.7334,4.19043-4.7334c2.51367,0,4.08008,1.77246,4.08008,4.51758v0.63672h-6.39453v0.1123
					c0,1.5752,0.94629,2.61621,2.43555,2.61621c1.05859,0,1.8418-0.5332,2.09082-1.3252H74.0249z M67.74268,18.4163h4.52637
					c-0.04297-1.38574-0.9209-2.3584-2.2207-2.3584C68.74951,16.0579,67.8374,17.04813,67.74268,18.4163z"/>
				<path d="M79.37061,23.77763V11.35966h1.74707l6.4375,9.15625h0.06836v-9.15625h1.87598v12.41797h-1.73828l-6.43652-9.14844
					h-0.07812v9.14844H79.37061z"/>
				<path d="M99.3374,21.11845c-0.25879,1.65234-1.82422,2.83105-3.89844,2.83105c-2.65918,0-4.26855-1.79883-4.26855-4.65527
					c0-2.83984,1.63477-4.7334,4.19043-4.7334c2.51367,0,4.08008,1.77246,4.08008,4.51758v0.63672h-6.39453v0.1123
					c0,1.5752,0.94629,2.61621,2.43555,2.61621c1.05859,0,1.8418-0.5332,2.09082-1.3252H99.3374z M93.05518,18.4163h4.52637
					c-0.04297-1.38574-0.9209-2.3584-2.2207-2.3584C94.06201,16.0579,93.1499,17.04813,93.05518,18.4163z"/>
				<path d="M110.35205,23.77763h-1.93652l-1.90234-6.78125h-0.04297l-1.88477,6.78125h-1.91895l-2.4873-9.05371h1.85938
					l1.65234,7.12598h0.03418l1.88477-7.12598h1.79004l1.89355,7.12598h0.04297l1.65234-7.12598h1.8418L110.35205,23.77763z"/>
				<path d="M117.30615,14.56083c2.1084,0,3.47754,1.16992,3.53711,2.83984h-1.74707
					c-0.10254-0.87793-0.74805-1.42871-1.79004-1.42871c-1.00684,0-1.67773,0.49023-1.67773,1.21387
					c0,0.56738,0.41309,0.95508,1.39453,1.17871l1.47168,0.33594c1.84961,0.42969,2.55566,1.15332,2.55566,2.46094
					c0,1.65234-1.54102,2.78809-3.6748,2.78809c-2.26367,0-3.62305-1.11035-3.79492-2.83105h1.84082
					c0.17285,0.94629,0.81836,1.41113,1.9541,1.41113c1.11914,0,1.80664-0.46484,1.80664-1.20508
					c0-0.58496-0.33496-0.92871-1.3252-1.15234l-1.47168-0.34473c-1.7207-0.39551-2.57227-1.22168-2.57227-2.53906
					C113.81299,15.67118,115.22412,14.56083,117.30615,14.56083z"/>
			</g>
		</g>
		<g>
			<linearGradient id="SVGID_1_" gradientUnits="userSpaceOnUse" x1="12.57969" y1="20.44344" x2="12.57969" y2="4.71596">
				<stop  offset="0" style="stop-color:#FD3159"/>
				<stop  offset="1" style="stop-color:#FD5464"/>
			</linearGradient>
			<path fill-rule="evenodd" clip-rule="evenodd" fill="url(#SVGID_1_)" d="M4.71594,13.5323v4.77055l0.00002,0.65257
				c0,0.0568-0.00002,0.11365,0.00035,0.17044c0.00025,0.04783,0.00081,0.0957,0.00209,0.14355
				c0.00283,0.10423,0.00899,0.20939,0.02751,0.3125c0.01879,0.10458,0.04945,0.20193,0.0978,0.29694
				c0.04756,0.0934,0.10962,0.17891,0.1837,0.253c0.07406,0.07407,0.15948,0.13619,0.25284,0.18372
				c0.09503,0.0484,0.19239,0.07911,0.29701,0.09791c0.10299,0.01855,0.20809,0.02465,0.31225,0.02748
				c0.04783,0.0013,0.09566,0.00183,0.14351,0.00215c0.05676,0.00033,0.11354,0.00031,0.17035,0.00031l0.65231,0.00002h4.77141
				c0.13713,0,0.1819-0.18436,0.05989-0.24694c-2.91487-1.49525-5.22884-3.80922-6.72409-6.72407
				c-0.02514-0.04903-0.06995-0.07114-0.11456-0.07114C4.78191,13.40128,4.71594,13.45025,4.71594,13.5323 M6.2065,4.71596
				c-0.05692,0-0.11383,0.00002-0.17074,0.00035C5.98784,4.71657,5.93991,4.71716,5.89199,4.71845
				c-0.10443,0.00283-0.2098,0.00897-0.31306,0.02752C5.47417,4.76485,5.37665,4.79552,5.28148,4.84393
				C5.1879,4.89158,5.10228,4.95375,5.02805,5.02796C4.95385,5.10217,4.89161,5.18773,4.84403,5.2812
				c-0.0485,0.09524-0.07925,0.19277-0.09809,0.29751C4.72739,5.68194,4.72125,5.78721,4.71839,5.89156
				c-0.00127,0.04788-0.00183,0.09579-0.00209,0.1437c-0.00035,0.048-0.00037,0.09602-0.00037,0.14401v0.02665v1.96427
				c0,0.40087,0.07796,0.6084,0.37512,0.90561L16.08361,20.0683c0.30093,0.30094,0.50562,0.37513,0.90561,0.37513h1.96366
				c0.05688,0,0.11383,0,0.17074-0.00036c0.04794-0.00028,0.09584-0.00084,0.14378-0.00216
				c0.10446-0.00281,0.20978-0.00894,0.31304-0.02751c0.10479-0.01884,0.20229-0.04954,0.29747-0.09796
				c0.09358-0.04766,0.17919-0.10981,0.25338-0.18402c0.07428-0.07423,0.13647-0.15976,0.18409-0.25323
				c0.04851-0.09524,0.07924-0.19277,0.09809-0.29752c0.01855-0.10318,0.0247-0.20845,0.0275-0.31283
				c0.0013-0.04789,0.00187-0.09577,0.00214-0.14376c0.00031-0.04819,0.00033-0.09648,0.00033-0.14475v-1.99007
				c0-0.40094-0.07793-0.60844-0.37513-0.90564L9.07579,5.09109C8.77486,4.79017,8.57014,4.71598,8.17017,4.71596H6.2065
				 M13.53233,4.71596c-0.13716,0-0.18194,0.18436-0.05994,0.24694c2.9149,1.49524,5.22883,3.8092,6.72409,6.72407
				c0.06261,0.12206,0.24696,0.07725,0.24696-0.05992V6.85652l-0.00005-0.65257c0-0.05679,0.00005-0.11363-0.00028-0.17043
				c-0.00027-0.04786-0.00084-0.0957-0.00216-0.14353c-0.0028-0.10428-0.00891-0.20943-0.02746-0.31252
				c-0.0188-0.1046-0.04947-0.20194-0.09784-0.29695c-0.0475-0.09343-0.10962-0.17888-0.18367-0.25297
				c-0.0741-0.0741-0.15947-0.1362-0.25285-0.18375c-0.09504-0.04841-0.19239-0.0791-0.297-0.09789
				c-0.10299-0.01854-0.2081-0.02468-0.31227-0.02751c-0.04781-0.00125-0.09564-0.00183-0.14348-0.00211
				c-0.0568-0.00035-0.1136-0.00033-0.17037-0.00033l-0.65233-0.00002H13.53233"/>
		</g>
		<g id="XMLID_36_">
			<g id="XMLID_37_">
				<g id="XMLID_38_">
					<g>
						<path d="M31.81592,7.53446h-0.93994V1.47977h2.39648c1.2207,0,2.00537,0.72559,2.00537,1.86328
							c0,0.81348-0.43604,1.47656-1.1748,1.72852l1.35938,2.46289h-1.08643l-1.23389-2.30762h-1.32617V7.53446z M31.81592,4.42509
							h1.35156c0.72559,0,1.14551-0.38574,1.14551-1.06152c0-0.6582-0.44482-1.05762-1.1709-1.05762h-1.32617V4.42509z"/>
						<path d="M40.36133,6.30106c-0.19678,0.81445-0.93555,1.32129-1.98047,1.32129c-1.30908,0-2.11035-0.89746-2.11035-2.35742
							c0-1.46094,0.81787-2.3877,2.10645-2.3877c1.27148,0,2.03906,0.86816,2.03906,2.30371V5.4954h-3.22656v0.05078
							c0.0293,0.80078,0.49512,1.30859,1.2168,1.30859c0.54541,0,0.91895-0.19727,1.08691-0.55371H40.36133z M37.18946,4.82841
							h2.30762c-0.021-0.71777-0.45752-1.18359-1.12451-1.18359S37.23975,4.11454,37.18946,4.82841z"/>
						<path d="M41.35889,6.24247c0-0.82227,0.61279-1.29688,1.69922-1.36426l1.23779-0.07129V4.41239
							c0-0.48242-0.31885-0.75488-0.93555-0.75488c-0.50342,0-0.85156,0.18457-0.95264,0.50781h-0.87256
							c0.09229-0.78516,0.83057-1.28809,1.86719-1.28809c1.14551,0,1.79199,0.57031,1.79199,1.53516v3.12207h-0.86865v-0.6416
							h-0.07178c-0.27246,0.45703-0.77197,0.71777-1.37207,0.71777C42.00098,7.61063,41.35889,7.07743,41.35889,6.24247z
							 M44.2959,5.85184V5.47001L43.17969,5.5413c-0.62939,0.04199-0.91456,0.25586-0.91456,0.65918
							c0,0.41113,0.35695,0.65039,0.84767,0.65039C43.79248,6.85087,44.2959,6.41825,44.2959,5.85184z"/>
						<path d="M46.37305,5.24735c0-1.44336,0.74268-2.35742,1.89648-2.35742c0.625,0,1.15381,0.29785,1.40137,0.80078h0.06738
							V1.18192h0.90184v6.35254h-0.86425V6.81278h-0.07129c-0.27295,0.5-0.80566,0.79785-1.43506,0.79785
							C47.10694,7.61063,46.37305,6.69559,46.37305,5.24735z M47.3042,5.24735c0,0.96973,0.45752,1.55273,1.22119,1.55273
							c0.75977,0,1.22949-0.5918,1.22949-1.54785c0-0.95312-0.47412-1.55273-1.22949-1.55273
							C47.76612,3.6995,47.3042,4.28641,47.3042,5.24735z"/>
						<path d="M54.35987,5.24735c0-1.47266,0.82227-2.37012,2.15674-2.37012c1.33008,0,2.15234,0.89746,2.15234,2.37012
							c0,1.48145-0.81787,2.375-2.15234,2.375C55.17774,7.62235,54.35987,6.7288,54.35987,5.24735z M57.7417,5.24735
							c0-0.99023-0.44482-1.56934-1.2251-1.56934c-0.78467,0-1.22559,0.5791-1.22559,1.56934
							c0,0.99902,0.44092,1.57422,1.22559,1.57422C57.29688,6.82157,57.7417,6.24247,57.7417,5.24735z"/>
						<path d="M59.87207,2.96513h0.86865v0.72559h0.06689c0.22266-0.50781,0.67578-0.81348,1.36377-0.81348
							c1.01953,0,1.58203,0.6123,1.58203,1.69922v2.95801h-0.90234V4.80302c0-0.73438-0.31885-1.09961-0.98584-1.09961
							c-0.66748,0-1.09131,0.44531-1.09131,1.1582v2.67285h-0.90186V2.96513z"/>
					</g>
				</g>
			</g>
		</g>
	</g>
</g>
<g>
</g>
<g>
</g>
<g>
</g>
<g>
</g>
<g>
</g>
<g>
</g>
</svg>
