<?xml version="1.0" encoding="utf-8"?>
<!-- Generator: Adobe Illustrator 21.1.0, SVG Export Plug-In . SVG Version: 6.00 Build 0)  -->
<svg version="1.1" id="Artwork" xmlns="http://www.w3.org/2000/svg" xmlns:xlink="http://www.w3.org/1999/xlink" x="0px" y="0px"
	 width="121.05334px" height="26.77438px" viewBox="0 0 121.05334 26.77438" enable-background="new 0 0 121.05334 26.77438"
	 xml:space="preserve">
<g>
	<path d="M17.40493,0c-0.03757,0-0.07513,0.00001-0.1127,0.00001H7.87155C7.83398,0.00001,7.79641,0,7.75885,0
		C7.49587,0,7.23289,0.0001,6.96991,0.00169C6.71674,0.00323,6.46363,0.00616,6.21053,0.013
		c-0.55148,0.01489-1.1078,0.0474-1.65317,0.14543C4.00408,0.25788,3.48913,0.42021,2.98645,0.6761
		c-0.4941,0.25153-0.94621,0.58011-1.33823,0.97215C1.25627,2.04021,0.92771,2.49223,0.67621,2.98625
		C0.42015,3.4892,0.25776,4.0044,0.15831,4.55799C0.06036,5.10317,0.02788,5.65927,0.01299,6.21056
		c-0.00684,0.2531-0.00976,0.5062-0.0113,0.75936C-0.00015,7.27048,0,7.57101,0,7.87157v9.42065
		c0,0.30055-0.00015,0.60109,0.00169,0.90164c0.00154,0.25316,0.00446,0.50626,0.0113,0.75936
		c0.01489,0.55129,0.04737,1.10738,0.14532,1.65257c0.09945,0.55357,0.26184,1.06879,0.5179,1.57172
		c0.2515,0.49403,0.58006,0.94606,0.97201,1.33804c0.39202,0.39202,0.84413,0.72059,1.33823,0.97211
		c0.50268,0.25589,1.01763,0.41824,1.57091,0.51767c0.54537,0.09803,1.10169,0.13055,1.65317,0.14545
		c0.2531,0.00684,0.50621,0.00976,0.75938,0.0113c0.26065,0.00159,0.52134,0.00169,0.78199,0.00169c0.0399,0,0.07975,0,0.11965,0
		h9.42068c0.03988,0,0.07977,0,0.11965,0c0.26066,0,0.52131-0.0001,0.78197-0.00169c0.25317-0.00154,0.50628-0.00446,0.75938-0.0113
		c0.55148-0.0149,1.1078-0.04742,1.65318-0.14545c0.55327-0.09943,1.06822-0.26178,1.57092-0.51767
		c0.49409-0.25153,0.9462-0.58009,1.3382-0.97211c0.39196-0.39198,0.72052-0.844,0.97203-1.33804
		c0.25607-0.50294,0.41843-1.01815,0.5179-1.57172c0.09795-0.5452,0.13042-1.10128,0.14532-1.65257
		c0.00684-0.2531,0.00977-0.5062,0.01131-0.75936c0.00182-0.30055,0.00169-0.60109,0.00169-0.90164V7.87157
		c0-0.30056,0.00014-0.60109-0.00169-0.90165c-0.00154-0.25317-0.00447-0.50626-0.01131-0.75936
		c-0.0149-0.55128-0.04737-1.10738-0.14532-1.65257c-0.09946-0.55359-0.26183-1.06879-0.5179-1.57174
		c-0.25151-0.49403-0.58007-0.94604-0.97203-1.33801c-0.39201-0.39204-0.84412-0.72061-1.3382-0.97215
		c-0.50269-0.25589-1.01765-0.41822-1.57092-0.51767C20.06103,0.0604,19.50472,0.02789,18.95324,0.013
		c-0.25311-0.00684-0.50621-0.00977-0.75938-0.01131C17.93088,0.0001,17.66791,0,17.40493,0L17.40493,0z"/>
	<path fill="#FFFFFF" d="M17.40493,0.35001l0.78679,0.00168c0.25072,0.00153,0.50139,0.00441,0.75206,0.01119
		c0.47811,0.01291,1.04217,0.03963,1.60071,0.14004c0.54203,0.09743,1.0242,0.25611,1.47404,0.4851
		c0.46201,0.2352,0.88241,0.5406,1.2495,0.90772c0.36711,0.3671,0.67247,0.78743,0.90762,1.24932
		c0.22911,0.45,0.38786,0.93243,0.48531,1.47482c0.10028,0.55818,0.12701,1.1221,0.13993,1.60014
		c0.00677,0.25065,0.00967,0.5013,0.01119,0.75201c0.0017,0.28107,0.00169,0.5621,0.00168,0.84317v0.05637v9.42065v0.05637
		c0.00002,0.28106,0.00002,0.5621-0.00168,0.84315c-0.00153,0.25072-0.00442,0.50138-0.01119,0.75203
		c-0.01292,0.47802-0.03965,1.04195-0.13992,1.60013c-0.09747,0.54241-0.25621,1.02483-0.48533,1.47484
		c-0.23515,0.46189-0.54051,0.88223-0.90762,1.24934c-0.36709,0.36709-0.78748,0.67249-1.2495,0.90769
		c-0.44988,0.22901-0.93205,0.38769-1.47405,0.4851c-0.55849,0.10039-1.12258,0.12713-1.60072,0.14005
		c-0.25066,0.00677-0.50132,0.00965-0.75205,0.01118l-0.77984,0.00168h-0.11965H7.87155H7.7519L6.97204,24.8121
		c-0.25073-0.00153-0.5014-0.00441-0.75206-0.01118c-0.47813-0.01292-1.04221-0.03966-1.60071-0.14005
		c-0.542-0.09741-1.02416-0.25609-1.47404-0.4851c-0.46202-0.2352-0.88242-0.54059-1.24952-0.90769
		c-0.3671-0.36713-0.67246-0.78746-0.9076-1.24935c-0.22914-0.45006-0.38788-0.93248-0.48532-1.47482
		c-0.1003-0.55828-0.12702-1.12217-0.13993-1.60014c-0.00677-0.25065-0.00965-0.50131-0.01118-0.75204
		c-0.0017-0.27877-0.00169-0.55753-0.00168-0.8363v-0.06321V7.87157V7.80836C0.34999,7.52959,0.34998,7.25083,0.35168,6.97205
		C0.35321,6.72132,0.35609,6.47066,0.36286,6.22C0.37577,5.74203,0.40249,5.17815,0.5028,4.61988
		c0.09743-0.54234,0.25617-1.02477,0.48532-1.47484c0.23512-0.46187,0.54048-0.8822,0.90759-1.24932
		C2.26282,1.5286,2.68322,1.22321,3.14523,0.98801c0.44985-0.22899,0.93201-0.38767,1.47405-0.4851
		C5.17781,0.40251,5.74187,0.37579,6.22,0.36288c0.25065-0.00678,0.50132-0.00967,0.75203-0.01119l0.78681-0.00168h0.11271h9.42068
		H17.40493"/>
	<g>
		<g id="XMLID_18_">
			<g>
				<path fill="#FFFFFF" d="M38.16565,20.42281h-4.7334l-1.13672,3.35645h-2.00488l4.4834-12.41797h2.08301l4.4834,12.41797
					h-2.03906L38.16565,20.42281z M33.92248,18.87399h3.75195l-1.84961-5.44824h-0.05176L33.92248,18.87399z"/>
				<path fill="#FFFFFF" d="M51.02307,19.25289c0,2.86523-1.50586,4.68164-3.77832,4.68164
					c-1.29883,0-2.33203-0.6377-2.84863-1.64453h-0.04297v4.48438h-1.8584V14.72555h1.79883v1.55762h0.03418
					c0.5332-1.04102,1.5752-1.7041,2.88281-1.7041C49.50842,14.57906,51.02307,16.38668,51.02307,19.25289z M49.11291,19.25289
					c0-1.89355-0.9209-3.10742-2.39258-3.10742c-1.41992,0-2.375,1.23926-2.375,3.10742c0,1.88477,0.94629,3.10645,2.375,3.10645
					C48.19201,22.35934,49.11291,21.15426,49.11291,19.25289z"/>
				<path fill="#FFFFFF" d="M60.98791,19.25289c0,2.86523-1.50586,4.68164-3.77832,4.68164
					c-1.29883,0-2.33203-0.6377-2.84863-1.64453h-0.04297v4.48438h-1.8584V14.72555h1.79883v1.55762h0.03418
					c0.5332-1.04102,1.5752-1.7041,2.88281-1.7041C59.47326,14.57906,60.98791,16.38668,60.98791,19.25289z M59.07775,19.25289
					c0-1.89355-0.9209-3.10742-2.39258-3.10742c-1.41992,0-2.375,1.23926-2.375,3.10742c0,1.88477,0.94629,3.10645,2.375,3.10645
					C58.15686,22.35934,59.07775,21.15426,59.07775,19.25289z"/>
				<path fill="#FFFFFF" d="M62.49279,11.36129h1.85938v12.41797h-1.85938V11.36129z"/>
				<path fill="#FFFFFF" d="M74.02795,21.12008c-0.25879,1.65234-1.82422,2.83105-3.89844,2.83105
					c-2.65918,0-4.26855-1.79883-4.26855-4.65527c0-2.83984,1.63477-4.7334,4.19043-4.7334
					c2.51367,0,4.08008,1.77246,4.08008,4.51758v0.63672h-6.39453v0.1123c0,1.5752,0.94629,2.61621,2.43555,2.61621
					c1.05859,0,1.8418-0.5332,2.09082-1.3252H74.02795z M67.74573,18.41793h4.52637c-0.04297-1.38574-0.9209-2.3584-2.2207-2.3584
					C68.75256,16.05953,67.84045,17.04977,67.74573,18.41793z"/>
				<path fill="#FFFFFF" d="M79.37366,23.77926V11.36129h1.74707l6.4375,9.15625h0.06836v-9.15625h1.87598v12.41797h-1.73828
					l-6.43652-9.14844h-0.07812v9.14844H79.37366z"/>
				<path fill="#FFFFFF" d="M99.34045,21.12008c-0.25879,1.65234-1.82422,2.83105-3.89844,2.83105
					c-2.65918,0-4.26855-1.79883-4.26855-4.65527c0-2.83984,1.63477-4.7334,4.19043-4.7334
					c2.51367,0,4.08008,1.77246,4.08008,4.51758v0.63672h-6.39453v0.1123c0,1.5752,0.94629,2.61621,2.43555,2.61621
					c1.05859,0,1.8418-0.5332,2.09082-1.3252H99.34045z M93.05823,18.41793h4.52637c-0.04297-1.38574-0.9209-2.3584-2.2207-2.3584
					C94.06506,16.05953,93.15295,17.04977,93.05823,18.41793z"/>
				<path fill="#FFFFFF" d="M110.3551,23.77926h-1.93652l-1.90234-6.78125h-0.04297l-1.88477,6.78125h-1.91895l-2.4873-9.05371
					h1.85938l1.65234,7.12598h0.03418l1.88477-7.12598h1.79004l1.89355,7.12598h0.04297l1.65234-7.12598h1.8418L110.3551,23.77926z"
					/>
				<path fill="#FFFFFF" d="M117.3092,14.56246c2.1084,0,3.47754,1.16992,3.53711,2.83984h-1.74707
					c-0.10254-0.87793-0.74805-1.42871-1.79004-1.42871c-1.00684,0-1.67773,0.49023-1.67773,1.21387
					c0,0.56738,0.41309,0.95508,1.39453,1.17871l1.47168,0.33594c1.84961,0.42969,2.55566,1.15332,2.55566,2.46094
					c0,1.65234-1.54102,2.78809-3.6748,2.78809c-2.26367,0-3.62305-1.11035-3.79492-2.83105h1.84082
					c0.17285,0.94629,0.81836,1.41113,1.9541,1.41113c1.11914,0,1.80664-0.46484,1.80664-1.20508
					c0-0.58496-0.33496-0.92871-1.3252-1.15234l-1.47168-0.34473c-1.7207-0.39551-2.57227-1.22168-2.57227-2.53906
					C113.81604,15.67281,115.22717,14.56246,117.3092,14.56246z"/>
			</g>
		</g>
		<g>
			<linearGradient id="SVGID_1_" gradientUnits="userSpaceOnUse" x1="12.58188" y1="20.44564" x2="12.58188" y2="4.71816">
				<stop  offset="0" style="stop-color:#FD3159"/>
				<stop  offset="1" style="stop-color:#FD5464"/>
			</linearGradient>
			<path fill-rule="evenodd" clip-rule="evenodd" fill="url(#SVGID_1_)" d="M4.71813,13.5345v4.77055l0.00002,0.65257
				c0,0.0568-0.00002,0.11365,0.00035,0.17044c0.00025,0.04783,0.00081,0.0957,0.00209,0.14355
				c0.00283,0.10423,0.00899,0.20939,0.02751,0.31251c0.01879,0.10458,0.04945,0.20193,0.0978,0.29693
				c0.04756,0.0934,0.10962,0.17891,0.1837,0.253c0.07406,0.07407,0.15948,0.13619,0.25284,0.18372
				c0.09503,0.0484,0.19239,0.07911,0.29701,0.09791c0.10299,0.01855,0.20809,0.02465,0.31225,0.02748
				c0.04783,0.0013,0.09566,0.00183,0.14351,0.00215c0.05676,0.00033,0.11354,0.00031,0.17035,0.00031l0.65231,0.00002h4.77141
				c0.13713,0,0.1819-0.18436,0.05989-0.24694c-2.91487-1.49526-5.22884-3.80922-6.72409-6.72407
				c-0.02514-0.04903-0.06995-0.07114-0.11456-0.07114C4.78411,13.40348,4.71813,13.45246,4.71813,13.5345 M6.20869,4.71816
				c-0.05692,0-0.11382,0.00002-0.17074,0.00035C5.99004,4.71878,5.9421,4.71937,5.89418,4.72066
				C5.78975,4.72349,5.68438,4.72962,5.58112,4.74818C5.47637,4.76705,5.37885,4.79772,5.28367,4.84613
				C5.1901,4.89378,5.10448,4.95595,5.03024,5.03016C4.95604,5.10438,4.8938,5.18993,4.84622,5.28341
				c-0.0485,0.09524-0.07925,0.19277-0.09809,0.29751C4.72958,5.68414,4.72344,5.78941,4.72059,5.89376
				C4.71932,5.94165,4.71875,5.98955,4.7185,6.03746c-0.00035,0.048-0.00037,0.09602-0.00037,0.14401v0.02665v1.96427
				c0,0.40087,0.07796,0.6084,0.37512,0.90561l10.99255,10.9925c0.30093,0.30094,0.50562,0.37513,0.90561,0.37513h1.96366
				c0.05688,0,0.11384,0,0.17074-0.00036c0.04794-0.00028,0.09584-0.00084,0.14378-0.00216
				c0.10446-0.00281,0.20978-0.00894,0.31304-0.02751c0.10479-0.01884,0.20229-0.04954,0.29747-0.09796
				c0.09358-0.04766,0.17919-0.10981,0.25338-0.18402c0.07428-0.07423,0.13647-0.15976,0.18408-0.25323
				c0.04852-0.09524,0.07924-0.19277,0.09809-0.29752c0.01855-0.10318,0.0247-0.20845,0.0275-0.31283
				c0.0013-0.04788,0.00187-0.09577,0.00214-0.14376c0.00031-0.04819,0.00034-0.09648,0.00034-0.14476v-1.99007
				c0-0.40094-0.07794-0.60844-0.37513-0.90564L9.07799,5.09329C8.77706,4.79237,8.57234,4.71818,8.17237,4.71816H6.20869
				 M13.53452,4.71816c-0.13717,0-0.18194,0.18436-0.05994,0.24694c2.9149,1.49524,5.22883,3.8092,6.72409,6.72407
				c0.06261,0.12206,0.24697,0.07725,0.24697-0.05992V6.85873l-0.00005-0.65257c0-0.05679,0.00005-0.11363-0.00028-0.17043
				c-0.00027-0.04786-0.00084-0.0957-0.00216-0.14353c-0.0028-0.10428-0.00891-0.20943-0.02746-0.31252
				c-0.0188-0.1046-0.04947-0.20194-0.09784-0.29695c-0.0475-0.09343-0.10962-0.17888-0.18367-0.25297
				c-0.0741-0.0741-0.15947-0.1362-0.25285-0.18375c-0.09504-0.04841-0.19239-0.0791-0.297-0.09789
				c-0.10299-0.01854-0.2081-0.02468-0.31226-0.02751c-0.04781-0.00125-0.09565-0.00183-0.14348-0.00211
				c-0.0568-0.00035-0.1136-0.00032-0.17037-0.00032l-0.65233-0.00002H13.53452"/>
		</g>
		<g id="XMLID_12_">
			<g id="XMLID_16_">
				<g id="XMLID_17_">
					<g>
						<path fill="#FFFFFF" d="M31.81897,7.53609h-0.93994V1.48141h2.39648c1.2207,0,2.00537,0.72559,2.00537,1.86328
							c0,0.81348-0.43604,1.47656-1.1748,1.72852l1.35938,2.46289h-1.08643l-1.23389-2.30762h-1.32617V7.53609z M31.81897,4.42672
							h1.35156c0.72559,0,1.14551-0.38574,1.14551-1.06152c0-0.6582-0.44482-1.05762-1.1709-1.05762h-1.32617V4.42672z"/>
						<path fill="#FFFFFF" d="M40.36438,6.3027c-0.19678,0.81445-0.93555,1.32129-1.98047,1.32129
							c-1.30908,0-2.11035-0.89746-2.11035-2.35742c0-1.46094,0.81787-2.3877,2.10645-2.3877
							c1.27148,0,2.03906,0.86816,2.03906,2.30371v0.31445H37.1925v0.05078c0.0293,0.80078,0.49512,1.30859,1.2168,1.30859
							c0.54541,0,0.91895-0.19727,1.08691-0.55371H40.36438z M37.1925,4.83004h2.30762
							c-0.021-0.71777-0.45752-1.18359-1.12451-1.18359S37.24279,4.11617,37.1925,4.83004z"/>
						<path fill="#FFFFFF" d="M41.36193,6.2441c0-0.82227,0.61279-1.29688,1.69922-1.36426l1.23779-0.07129V4.41402
							c0-0.48242-0.31885-0.75488-0.93555-0.75488c-0.50342,0-0.85156,0.18457-0.95264,0.50781H41.5382
							c0.09229-0.78516,0.83057-1.28809,1.86719-1.28809c1.14551,0,1.79199,0.57031,1.79199,1.53516v3.12207h-0.86865v-0.6416
							h-0.07178c-0.27246,0.45703-0.77197,0.71777-1.37207,0.71777C42.00402,7.61227,41.36193,7.07906,41.36193,6.2441z
							 M44.29895,5.85348V5.47164l-1.11621,0.07129c-0.62939,0.04199-0.91456,0.25586-0.91456,0.65918
							c0,0.41113,0.35694,0.65039,0.84766,0.65039C43.79553,6.8525,44.29895,6.41988,44.29895,5.85348z"/>
						<path fill="#FFFFFF" d="M46.37609,5.24898c0-1.44336,0.74268-2.35742,1.89648-2.35742
							c0.625,0,1.15381,0.29785,1.40137,0.80078h0.06738V1.18356h0.90185v6.35254h-0.86425V6.81441h-0.07129
							c-0.27295,0.5-0.80566,0.79785-1.43506,0.79785C47.10998,7.61227,46.37609,6.69723,46.37609,5.24898z M47.30725,5.24898
							c0,0.96973,0.45752,1.55273,1.22119,1.55273c0.75977,0,1.22949-0.5918,1.22949-1.54785
							c0-0.95312-0.47412-1.55273-1.22949-1.55273C47.76916,3.70113,47.30725,4.28805,47.30725,5.24898z"/>
						<path fill="#FFFFFF" d="M54.36291,5.24898c0-1.47266,0.82227-2.37012,2.15674-2.37012
							c1.33008,0,2.15234,0.89746,2.15234,2.37012c0,1.48145-0.81787,2.375-2.15234,2.375
							C55.18078,7.62398,54.36291,6.73043,54.36291,5.24898z M57.74475,5.24898c0-0.99023-0.44482-1.56934-1.2251-1.56934
							c-0.78467,0-1.22559,0.5791-1.22559,1.56934c0,0.99902,0.44092,1.57422,1.22559,1.57422
							C57.29992,6.8232,57.74475,6.2441,57.74475,5.24898z"/>
						<path fill="#FFFFFF" d="M59.87512,2.96676h0.86865v0.72559h0.06689c0.22266-0.50781,0.67578-0.81348,1.36377-0.81348
							c1.01953,0,1.58203,0.6123,1.58203,1.69922v2.95801h-0.90234V4.80465c0-0.73438-0.31885-1.09961-0.98584-1.09961
							c-0.66748,0-1.09131,0.44531-1.09131,1.1582v2.67285h-0.90186V2.96676z"/>
					</g>
				</g>
			</g>
		</g>
	</g>
</g>
<g>
</g>
<g>
</g>
<g>
</g>
<g>
</g>
<g>
</g>
<g>
</g>
</svg>
