<svg xmlns:svg="http://www.w3.org/2000/svg" xmlns="http://www.w3.org/2000/svg" version="1.1" xml:space="preserve" width="379.526" height="231.314" viewBox="0 0 379.526 231.314"><style>.g{fill:#000;}</style><defs><clipPath clipPathUnits="userSpaceOnUse"><path d="m0 841.89 1190.55 0L1190.55 0 0 0 0 841.89Z"/></clipPath></defs><g transform="matrix(1.25,0,0,-1.25,-543.02828,641.71088)"><g transform="translate(674.3594,434.4639)"/><g transform="translate(-8.688777,-4.5052917)"><g clip-path="url(#clipPath5461)"><g transform="translate(639.6924,410.666)"><path d="m0 0-5.316-8.618-11.899-4.756-2.175 7.955 2.371 6.051L11.239 12.245 18.067 4.977 0 0Zm10.878-7.097-8.518-9.367-2.914-1.549-9.834-7.881 0.871 6.022 8.77 10.858 3.2 6.069 15.946 2.678-7.521-6.83zM-151.645-76l-1.914 0.326 5.077 4.648 4.437-0.578-7.6-4.396zM105.516 25.741c0 0-24.473 7.148-63.471 5.221-0.858-2.232-0.623-2.556-0.623-2.556L39.354 23.954 46.935 21.396 25.127 12.175 7.796 15.801c0 0 7.65 12.419 20.549 7.401-1.833 1.668-0.566 1.088-0.566 1.088l-6.698 7.171 0.08-0.076-8.26 2.78c0 0-2.462-0.096 4.866 2.188 7.328 2.284 33.335-3.533 33.335-3.533 0 0-3.21 3.807-15.393 6.42-0.662 0.255-41.095 9.742-53.183-9.522-1.267-2.023-5.779-2.597-5.948-2.381-2.4 3.063-3.92 13.813-5.92 26.061-2.119 12.976-4.776 27.633-9.603 36.619-11.819 10.749-53.215 17.191-53.215 17.191l13.468-20.026 4.75-10.144 21.584 1.02 3.985-6.914-24.819 1.402c0 0 0.943-8.533 1.179-8.643 0.239-0.108 24.638-0.407 24.638-0.407l-1.533-6.2-23.038 1.504-1.344-7.281 25.209-1.708 2.308-6.452-29.069 2.874-2.929-5.93 33.06-5.675 0.276-6.994-34.219 10.59-3.717-2.406c0 0 25.093-16.619 28.221-16.802l21.004-4.642-20.179 2.316c-10.856 0.767-54.307 35.826-65.67 43.93-11.363 8.104-77.586 18.499-77.586 18.499 0.358-2.862 23.249-22.758 28.616-30.1 5.366-7.345 12.464-19.528 12.464-19.528l22.828 15.995c-0.16-0.253 5.828-5.5 5.828-5.5l-25.008-17.418 2.701-9.194 28.586 19.539 4.009-8.084-31.954-17.942 1.13-7.474 35.63 19.02 7.166-7.681-42.662-18.091 0.502-9.742 47.249 19.857 12.569-6.814-59.183-19.28 0.294-2.015c0 0 18.463-13.75 25.541-13.183 7.075 0.569 11.083 1.24 11.083 1.24l-13.364-7.675-21.382-9.34-18.139-1.641 0.018-0.868 8.026-3.033-15.071-0.389-0.344-1.835-0.055-1.922-0.431-2.317 0.789-0.914-0.542-1.678 8.091-5.019 1.974 0.786-1.543-2.893 8.792-1.829 9.102 6.062 0.1 1.016 4.212-0.345c0 0 7.159-1.244 22.845 5.761 57.988-22.089 112.994 32.443 112.994 32.443 0 0 16.166 15.686 22.898 28.209 1.081 1.981 4.68 5.279 6.608 6.602 2.804 1.395 27.013 12.293 29.994 12.275 36.491 6.538 46.806 9.509 49.539 10.196 2.738 0.685-0.403 1.365-0.403 1.365m-70.849-1.943-6.177-0.616 0.027 6.061 6.025 0.344 0.125-5.789zm-12.013 10.201-9.257-12.012 25.743-2.625 3.374 11.563-19.86 3.074z"/></g></g></g></g></svg>