<svg xmlns:svg="http://www.w3.org/2000/svg" xmlns="http://www.w3.org/2000/svg" viewBox="0 0 732 143" height="143" width="732" xml:space="preserve" version="1.1"><style>g{fill:#000;}</style><defs><clipPath clipPathUnits="userSpaceOnUse"><path d="m0 841.9 1190.6 0L1190.6 0 0 0 0 841.9Z"/></clipPath><clipPath clipPathUnits="userSpaceOnUse"><path d="m0 841.89 1190.55 0L1190.55 0 0 0 0 841.89Z"/></clipPath></defs><g transform="matrix(0.57490228,-0.04120952,-0.04120952,-0.57490228,322.84916,320.78736)"><g transform="translate(674.3594,434.4639)"/><g transform="translate(-8.688777,-4.5052917)"><g clip-path="url(#clipPath5461)"><g transform="translate(639.6924,410.666)"><path d="m0 0-5.316-8.618-11.899-4.756-2.175 7.955 2.371 6.051L11.239 12.245 18.067 4.977 0 0Zm10.878-7.097-8.518-9.367-2.914-1.549-9.834-7.881 0.871 6.022 8.77 10.858 3.2 6.069 15.946 2.678-7.521-6.83zM-151.645-76l-1.914 0.326 5.077 4.648 4.437-0.578-7.6-4.396zM105.516 25.741c0 0-24.473 7.148-63.471 5.221-0.858-2.232-0.623-2.556-0.623-2.556L39.354 23.954 46.935 21.396 25.127 12.175 7.796 15.801c0 0 7.65 12.419 20.549 7.401-1.833 1.668-0.566 1.088-0.566 1.088l-6.698 7.171 0.08-0.076-8.26 2.78c0 0-2.462-0.096 4.866 2.188 7.328 2.284 33.335-3.533 33.335-3.533 0 0-3.21 3.807-15.393 6.42-0.662 0.255-41.095 9.742-53.183-9.522-1.267-2.023-5.779-2.597-5.948-2.381-2.4 3.063-3.92 13.813-5.92 26.061-2.119 12.976-4.776 27.633-9.603 36.619-11.819 10.749-53.215 17.191-53.215 17.191l13.468-20.026 4.75-10.144 21.584 1.02 3.985-6.914-24.819 1.402c0 0 0.943-8.533 1.179-8.643 0.239-0.108 24.638-0.407 24.638-0.407l-1.533-6.2-23.038 1.504-1.344-7.281 25.209-1.708 2.308-6.452-29.069 2.874-2.929-5.93 33.06-5.675 0.276-6.994-34.219 10.59-3.717-2.406c0 0 25.093-16.619 28.221-16.802l21.004-4.642-20.179 2.316c-10.856 0.767-54.307 35.826-65.67 43.93-11.363 8.104-77.586 18.499-77.586 18.499 0.358-2.862 23.249-22.758 28.616-30.1 5.366-7.345 12.464-19.528 12.464-19.528l22.828 15.995c-0.16-0.253 5.828-5.5 5.828-5.5l-25.008-17.418 2.701-9.194 28.586 19.539 4.009-8.084-31.954-17.942 1.13-7.474 35.63 19.02 7.166-7.681-42.662-18.091 0.502-9.742 47.249 19.857 12.569-6.814-59.183-19.28 0.294-2.015c0 0 18.463-13.75 25.541-13.183 7.075 0.569 11.083 1.24 11.083 1.24l-13.364-7.675-21.382-9.34-18.139-1.641 0.018-0.868 8.026-3.033-15.071-0.389-0.344-1.835-0.055-1.922-0.431-2.317 0.789-0.914-0.542-1.678 8.091-5.019 1.974 0.786-1.543-2.893 8.792-1.829 9.102 6.062 0.1 1.016 4.212-0.345c0 0 7.159-1.244 22.845 5.761 57.988-22.089 112.994 32.443 112.994 32.443 0 0 16.166 15.686 22.898 28.209 1.081 1.981 4.68 5.279 6.608 6.602 2.804 1.395 27.013 12.293 29.994 12.275 36.491 6.538 46.806 9.509 49.539 10.196 2.738 0.685-0.403 1.365-0.403 1.365m-70.849-1.943-6.177-0.616 0.027 6.061 6.025 0.344 0.125-5.789zm-12.013 10.201-9.257-12.012 25.743-2.625 3.374 11.563-19.86 3.074z"/></g></g></g></g><g transform="matrix(1.25,0,0,1.2135925,-1.324025,137.8036)"><path d="m127-103c-1.543 0.224-4.077 0.723-7.546 1.588-3.468 0.865-5.803 1.664-7.003 2.396-2.001 1.264-3.368 3.593-4.102 6.987C107.434-88.835 107-84.11 107-77.855L107 1 100.646 1 30-87.238l0 55.299c0.28 11.446 2.214 18.666 5.816 21.661 1.267 0.932 3.868 1.996 7.804 3.194 3.778 0.998 6.58 1.564 8.38 1.697L52 0 3 0 3-5.387c1.535-0.133 4.136-0.665 7.805-1.597 3.802-1.065 6.136-1.897 7.003-2.495C21.266-11.941 23-19.162 23-31.14l0-52.405c0.01-5.59-1.691-9.749-5.092-12.477-1.868-1.464-4.669-2.961-8.404-4.492C5.969-101.978 3.134-102.743 1-102.809L1-108 34.415-108 100-25.949l0-51.007c-0.088-11.912-1.955-19.032-5.557-21.361-1.467-0.932-4.069-1.863-7.804-2.795C82.736-102.177 79.868-102.743 78-102.809L78-108l49 0 0 5.191zm72.891 65.871c0 10.98-3.335 20.263-10.005 27.849-6.67 7.453-15.741 11.18-27.213 11.18-9.938 0-18.375-3.527-25.312-10.581-7.003-6.987-10.505-16.204-10.505-27.65 0-11.446 3.368-20.762 10.105-27.949 6.736-7.253 15.674-10.88 26.812-10.88 10.872 0 19.576 3.56 26.112 10.681 6.67 7.054 10.005 16.071 10.005 27.051zm-16.007-0.2c0-9.117-1.634-16.803-4.902-23.058-3.201-6.322-8.337-9.483-15.407-9.483-3.935 0-7.303 0.998-10.105 2.995-2.868 1.863-5.036 4.425-6.503 7.686-1.467 3.261-2.534 6.688-3.201 10.281-0.667 3.46-1 7.187-1 11.18 0 9.982 1.701 18.167 5.102 24.555 3.468 6.388 8.704 9.583 15.707 9.583 6.67 0 11.672-3.161 15.007-9.483 3.468-6.388 5.202-14.54 5.202-24.456zM292.934-1.094 267.923 0.403 267-0.695 267-10l-0.678 0c-3.001 2.551-5.169 4.647-6.503 5.911-1.401 1.131-3.835 2.462-7.303 3.993C248.981 1.301 245.112 2 240.91 2 233.774 2 228.505-0.329 225.103-4.987 221.734-9.645 220-15.934 220-23.853l0-33.639c-0.033-3.394-1.367-6.022-4.101-7.886-1.696-1.131-4.364-1.83-7.899-2.096l0-4.791 25.607-1.897 1.393 1.098 0 50.209c-0.226 5.257 0.875 9.383 3.209 12.377 2.468 2.861 5.503 4.292 9.104 4.292 8.615 0 15.151-3.66 19.687-10.98l0-40.926c-0.611-3.593-2.112-6.222-4.58-7.886-1.249-0.799-4.751-1.298-10.42-1.497l0-4.791 28.028-1.897 0.972 1.098 0 57.695c0.396 3.394 1.83 5.923 4.231 7.586 1.333 0.865 3.901 1.397 7.769 1.597l0 4.991zm65.03-19.564c0 6.655-2.601 12.111-7.804 16.37C345.025-0.096 338.589 2 330.852 2 327.117 2 323.382 1.335 319.647 0.004 315.911-1.327 313.31-2.791 311.843-4.388L310.242 1l-5.402 0-0.9-26 5.102 0c1.067 5.04 3.635 9.798 7.704 14.523 4.069 4.592 8.971 6.887 14.707 6.887 10.005 0 15.007-4.192 15.007-12.577 0-3.993-1.401-6.987-4.202-8.984-2.801-2.129-7.603-4.159-14.407-6.089-14.673-4.325-22.01-11.878-22.01-22.659 0-6.056 2.201-11.08 6.603-15.073 4.469-3.993 10.371-5.989 17.708-5.989 7.137 0 12.673 1.431 16.608 4.292L348.06-75l5.102 0 1.101 23-5.102 0c-0.867-5.192-2.935-9.218-6.203-12.479-3.335-3.261-7.637-4.891-12.906-4.891-4.069 0-7.203 0.932-9.404 2.795-2.134 1.863-3.201 4.325-3.201 7.387 0 4.059 1.234 6.987 3.702 8.784 2.535 1.664 7.503 3.693 14.907 6.089 7.27 2.329 12.773 5.257 16.508 8.784 3.602 3.86 5.402 8.817 5.402 14.873zM436-17.564c-2.935 6.056-7.103 10.814-12.506 14.274-5.269 3.46-11.205 5.191-17.808 5.191-11.605 0-20.443-3.627-26.512-10.88-6.136-7.387-9.204-16.77-9.204-28.149 0-10.248 3.101-19.099 9.304-26.552 6.336-7.586 14.607-11.379 24.811-11.379 10.338 0 17.908 2.895 22.71 8.684C431.599-60.586 434-53.166 434-44.116L434-40l-48.523 0c0 22.469 8.204 33.815 24.611 33.815 5.069 0 9.071-1.098 12.006-3.294 3.068-2.196 6.069-5.789 9.004-10.78L436-17.165Zm-16.908-28.249c0-15.971-5.069-23.956-15.207-23.956-5.136 0-9.438 2.229-12.906 6.688-3.468 4.459-5.302 10.315-5.503 17.568z"/></g></svg>